<svg viewBox="0 0 511 511.9" xmlns="http://www.w3.org/2000/svg" class="fill-current text-black"><path d="M510.9492 150.5c-1.1992-27.1992-5.5976-45.8984-11.8984-62.1016-6.5-17.1992-16.5-32.5976-29.6016-45.3984-12.8008-13-28.3008-23.1016-45.3008-29.5C407.8516 7.1992 389.25 2.8008 362.0508 1.6016 334.6484.3008 325.9492 0 256.4492 0s-78.1992.3008-105.5 1.5C123.75 2.6992 105.0508 7.1016 88.8516 13.3984 71.6484 19.8984 56.25 29.8984 43.4492 43c-13 12.8008-23.0976 28.3008-29.5 45.3008C7.6484 104.6016 3.25 123.1992 2.0508 150.3984.75 177.8008.4492 186.5.4492 256s.3008 78.1992 1.5 105.5c1.1992 27.1992 5.6016 45.8984 11.9024 62.1016 6.5 17.1992 16.5976 32.5976 29.5976 45.3984C56.25 482 71.75 492.1016 88.75 498.5c16.3008 6.3008 34.8984 10.6992 62.1016 11.8984 27.2968 1.2032 36 1.5 105.5 1.5s78.1992-.2968 105.5-1.5c27.1992-1.1992 45.8984-5.5976 62.0976-11.8984 34.4024-13.3008 61.6016-40.5 74.9024-74.8984 6.2968-16.3008 10.6992-34.9024 11.8984-62.1016 1.1992-27.3008 1.5-36 1.5-105.5s-.1016-78.1992-1.3008-105.5zm-46.0976 209c-1.1016 25-5.3008 38.5-8.8008 47.5-8.6016 22.3008-26.3008 40-48.6016 48.6016-9 3.5-22.5976 7.6992-47.5 8.7968-27 1.2032-35.0976 1.5-103.3984 1.5s-76.5-.2968-103.4024-1.5c-25-1.0976-38.5-5.2968-47.5-8.7968C94.5508 451.5 84.4492 445 76.25 436.5c-8.5-8.3008-15-18.3008-19.1016-29.3984-3.5-9-7.6992-22.6016-8.7968-47.5-1.2032-27-1.5-35.1016-1.5-103.4024s.2968-76.5 1.5-103.3984c1.0976-25 5.2968-38.5 8.7968-47.5C61.25 94.1992 67.75 84.1016 76.3516 75.8984c8.2968-8.5 18.2968-15 29.3984-19.0976 9-3.5 22.6016-7.6992 47.5-8.8008 27-1.1992 35.1016-1.5 103.3984-1.5 68.4024 0 76.5.3008 103.4024 1.5 25 1.1016 38.5 5.3008 47.5 8.8008 11.0976 4.0976 21.1992 10.5976 29.3984 19.0976 8.5 8.3008 15 18.3008 19.1016 29.4024 3.5 9 7.6992 22.5976 8.8008 47.5 1.1992 27 1.5 35.0976 1.5 103.3984s-.3008 76.3008-1.5 103.3008zm0 0" /><path d="M256.4492 124.5c-72.5976 0-131.5 58.8984-131.5 131.5s58.9024 131.5 131.5 131.5c72.6016 0 131.5-58.8984 131.5-131.5s-58.8984-131.5-131.5-131.5zm0 216.8008c-47.0976 0-85.3008-38.1992-85.3008-85.3008s38.2032-85.3008 85.3008-85.3008c47.1016 0 85.3008 38.1992 85.3008 85.3008s-38.1992 85.3008-85.3008 85.3008zm0 0M423.8516 119.3008c0 16.9531-13.7461 30.6992-30.7032 30.6992-16.953 0-30.6992-13.746-30.6992-30.6992 0-16.957 13.7461-30.6992 30.6992-30.6992 16.957 0 30.7032 13.7421 30.7032 30.6992zm0 0" /></svg>