<svg width="273" height="33" viewBox="0 0 273 33" fill="none" xmlns="http://www.w3.org/2000/svg">
<path d="M24.7901 32.27V15.06L19.3101 27.16H14.5201L9.04007 15.06V32.27H0.0700684V-0.400024H9.87006L16.9101 14.97L24.0001 -0.400024H33.7601V32.27H24.7901V32.27Z" fill="#25336C"/>
<path d="M47.8401 -0.400024H56.0301L67.3501 32.27H58.2401L56.2601 25.87H47.5601L45.6301 32.27H36.4701L47.8401 -0.400024ZM54.8401 19.9L51.9401 9.77997L48.9001 19.9H54.8401Z" fill="#25336C"/>
<path d="M70.0701 32.27V-0.400024H82.6301C85.3301 -0.400024 87.7101 0.0299841 89.7601 0.889984C91.8201 1.74998 93.5301 2.91998 94.9101 4.38998C96.2901 5.85998 97.3301 7.58998 98.0401 9.56998C98.7501 11.55 99.1001 13.66 99.1001 15.9C99.1001 18.39 98.7101 20.63 97.9301 22.64C97.1501 24.65 96.0401 26.37 94.5901 27.79C93.1501 29.22 91.4101 30.32 89.3901 31.1C87.3701 31.88 85.1101 32.27 82.6301 32.27H70.0701V32.27ZM89.9901 15.89C89.9901 14.63 89.8201 13.48 89.4801 12.44C89.1401 11.4 88.6601 10.51 88.0301 9.76996C87.4001 9.02996 86.6301 8.45998 85.7101 8.03998C84.7901 7.61998 83.7601 7.41998 82.6301 7.41998H79.0401V24.45H82.6301C83.8001 24.45 84.8401 24.24 85.7601 23.81C86.6801 23.38 87.45 22.78 88.08 22.02C88.71 21.25 89.1801 20.35 89.5101 19.3C89.8301 18.25 89.9901 17.12 89.9901 15.89Z" fill="#25336C"/>
<path d="M101.27 23.44C101.36 23.5 101.56 23.61 101.87 23.76C102.18 23.91 102.56 24.07 103.02 24.22C103.48 24.37 104.01 24.51 104.61 24.63C105.21 24.75 105.83 24.81 106.47 24.81C107.42 24.81 108.19 24.66 108.77 24.35C109.35 24.04 109.8 23.54 110.1 22.85C110.41 22.16 110.61 21.27 110.7 20.18C110.79 19.09 110.84 17.76 110.84 16.2V-0.400024H119.81V16.21C119.81 18.7 119.67 20.96 119.4 23C119.12 25.04 118.53 26.78 117.61 28.22C116.69 29.66 115.35 30.78 113.58 31.58C111.82 32.38 109.45 32.78 106.47 32.78C103.71 32.78 101.35 32.11 99.3801 30.76L101.27 23.44Z" fill="#25336C"/>
<path d="M125.06 32.27V-0.400024H134.03V32.27H125.06V32.27Z" fill="#25336C"/>
<path d="M139.65 32.27V-0.400024H152.21C154.91 -0.400024 157.29 0.0299841 159.34 0.889984C161.39 1.74998 163.11 2.91998 164.49 4.38998C165.87 5.85998 166.91 7.58998 167.62 9.56998C168.33 11.55 168.68 13.66 168.68 15.9C168.68 18.39 168.29 20.63 167.51 22.64C166.73 24.65 165.62 26.37 164.17 27.79C162.73 29.22 160.99 30.32 158.97 31.1C156.95 31.88 154.69 32.27 152.21 32.27H139.65V32.27ZM159.57 15.89C159.57 14.63 159.4 13.48 159.06 12.44C158.72 11.4 158.24 10.51 157.61 9.76996C156.98 9.02996 156.21 8.45998 155.29 8.03998C154.37 7.62998 153.34 7.41998 152.21 7.41998H148.62V24.45H152.21C153.37 24.45 154.42 24.24 155.34 23.81C156.26 23.38 157.04 22.78 157.66 22.02C158.29 21.25 158.76 20.35 159.09 19.3C159.41 18.25 159.57 17.12 159.57 15.89Z" fill="#25336C"/>
<path d="M189.48 7.32996V32.27H185.34V-0.400024H188.56L208.81 25.05V-0.350037H212.95V32.28H209.45L189.48 7.32996Z" fill="#A6A5A4"/>
<path d="M242.96 28.59V32.27H220.78V-0.400024H242.55V3.27997H224.92V13.86H240.24V17.31H224.92V28.58H242.96V28.59Z" fill="#A6A5A4"/>
<path d="M272.18 3.27997H260.9V32.27H256.76V3.27997H245.49V-0.400024H272.18V3.27997V3.27997Z" fill="#A6A5A4"/>
</svg>
