<svg width="279" height="227" viewBox="0 0 279 227" fill="none" xmlns="http://www.w3.org/2000/svg">
<g clip-path="url(#clip0)">
<path d="M162.8 200.42C162.96 200.6 163.11 200.79 163.27 200.99C166.33 204.68 169.8 209.47 172.97 215.38C173.65 216.65 174.3 217.97 174.96 219.34C174.99 219.39 175.01 219.44 175.03 219.5C175.84 221.23 177 222.63 178.39 223.7C182.33 226.74 188.02 227.01 192.24 223.62C192.33 223.55 192.41 223.49 192.5 223.42C196.57 220.18 200.88 216.92 205.4 213.63C206.63 212.73 207.88 211.85 209.11 210.98C208.19 209.54 207.26 207.97 206.34 206.23C205.5 204.64 204.77 203.12 204.13 201.65C205.58 203.28 207.29 205.01 209.26 206.71C209.62 207.03 209.98 207.34 210.34 207.64C210.9 208.1 211.46 208.53 212 208.96C212.57 208.57 213.14 208.16 213.72 207.77C214.3 207.38 214.87 206.99 215.43 206.6C214.07 204.56 212.66 202.27 211.28 199.78C210.89 199.05 210.51 198.34 210.15 197.63C208.72 194.82 207.53 192.13 206.54 189.63C207.67 190.49 208.84 191.42 210.05 192.46C211.44 193.64 212.86 194.93 214.3 196.36C216.7 198.74 218.77 201.08 220.51 203.26C224.76 200.49 228.89 197.91 232.93 195.5C229.28 193.21 225.15 190.21 220.97 186.27C216.14 181.77 212.45 177.18 209.66 173.07C208.74 171.74 207.92 170.45 207.19 169.23C207.07 169.01 206.93 168.8 206.81 168.6L198.58 174.55L162.8 200.42Z" fill="url(#paint0_linear)"/>
<path d="M48.29 17.68C36.61 17.68 27.14 27.15 27.14 38.83V184.6C27.14 196.34 36.65 205.85 48.39 205.85H55.57C67.31 205.85 76.82 196.34 76.82 184.6V90.4L118.27 143.88C122.3 149.08 130.17 149.07 134.18 143.85L137.04 140.12C137.23 139.87 137.24 139.53 137.05 139.28L49.46 18.28C49.18 17.9 48.75 17.68 48.29 17.68Z" fill="url(#paint1_linear)"/>
<path d="M199.43 158.4L198.72 157.62C192.76 151.06 182.83 150.01 175.65 155.19L175.48 155.32L64.95 2.64002C63.33 0.400016 60.29 -0.179986 57.95 1.20001L57.92 1.16002L57.52 1.45001L52.18 5.32002C48.96 7.65002 48.23 12.16 50.57 15.38L159.99 166.53L159.84 166.64L159.12 167.16C156.56 169 154.69 171.45 153.56 174.16C152.08 177.7 151.86 181.67 153.01 185.38C153.51 187.07 154.32 188.71 155.42 190.23L160.44 197.16L160.45 197.17L198.83 169.41L204.46 165.33L199.43 158.4Z" fill="url(#paint2_linear)"/>
<path d="M173.1 21.71L128.45 84.33C128.11 84.81 128.11 85.45 128.46 85.92L152.54 119.18C152.68 119.37 152.97 119.38 153.12 119.19L173.27 92.96C173.59 92.55 173.76 92.04 173.76 91.52V21.93C173.75 21.57 173.3 21.43 173.1 21.71Z" fill="url(#paint3_linear)"/>
<path d="M180.8 17.68C177.83 17.68 175.42 20.09 175.42 23.06V90.15V98.82V150.8L176.14 151.8C182.11 148.48 189.52 148.37 196.41 152.07C197.43 152.62 198.36 153.34 199.14 154.21L201.44 156.75L201.45 156.76L207.38 164.94L207.6 164.78L209.17 167.45C209.27 167.61 209.37 167.77 209.46 167.94C210.17 169.12 210.97 170.37 211.8 171.56C214.96 176.22 218.64 180.51 222.74 184.33C223.51 185.05 224.3 185.75 225.09 186.44V39.19C225.09 27.31 215.46 17.68 203.58 17.68H180.8Z" fill="url(#paint4_linear)"/>
<path d="M253.97 199.26C253.68 196.47 252.37 183.78 248.17 179.71C244.25 175.92 239.91 174.76 238.1 174.38C240.01 173.93 244 172.72 247.71 169.28C252.12 165.2 253.62 152.47 253.97 149.51C254.15 151.99 255.09 164.88 259.2 169.02C263.38 173.25 268.27 174.15 269.84 174.38C268.13 174.7 263.27 175.83 259.13 180.15C255.35 184.11 254.22 196.52 253.97 199.26Z" fill="url(#paint5_linear)"/>
<path d="M268.34 226.86C268.15 225.05 267.31 216.83 264.58 214.19C262.04 211.73 259.22 210.98 258.05 210.74C259.29 210.45 261.87 209.66 264.28 207.43C267.14 204.78 268.11 196.54 268.33 194.62C268.44 196.23 269.06 204.58 271.72 207.27C274.43 210.01 277.6 210.6 278.62 210.74C277.51 210.95 274.36 211.68 271.68 214.48C269.23 217.04 268.5 225.08 268.34 226.86Z" fill="url(#paint6_linear)"/>
</g>
<defs>
<linearGradient id="paint0_linear" x1="245.047" y1="154.758" x2="167.968" y2="225.315" gradientUnits="userSpaceOnUse">
<stop stop-color="#666665"/>
<stop offset="1" stop-color="#C8C8C8"/>
</linearGradient>
<linearGradient id="paint1_linear" x1="13.9966" y1="144.676" x2="164.746" y2="13.9377" gradientUnits="userSpaceOnUse">
<stop stop-color="#24224B"/>
<stop offset="0.0376" stop-color="#24244F"/>
<stop offset="0.3266" stop-color="#242F69"/>
<stop offset="0.5928" stop-color="#20387E"/>
<stop offset="0.8258" stop-color="#1C3E8D"/>
<stop offset="1" stop-color="#194092"/>
</linearGradient>
<linearGradient id="paint2_linear" x1="33.6884" y1="167.382" x2="184.437" y2="36.6435" gradientUnits="userSpaceOnUse">
<stop stop-color="#24224B"/>
<stop offset="0.0376" stop-color="#24244F"/>
<stop offset="0.3266" stop-color="#242F69"/>
<stop offset="0.5928" stop-color="#20387E"/>
<stop offset="0.8258" stop-color="#1C3E8D"/>
<stop offset="1" stop-color="#194092"/>
</linearGradient>
<linearGradient id="paint3_linear" x1="160.761" y1="4.27679" x2="148.796" y2="107.031" gradientUnits="userSpaceOnUse">
<stop stop-color="#666665"/>
<stop offset="1" stop-color="#C8C8C8"/>
</linearGradient>
<linearGradient id="paint4_linear" x1="73.5863" y1="213.386" x2="224.335" y2="82.6484" gradientUnits="userSpaceOnUse">
<stop stop-color="#24224B"/>
<stop offset="0.0376" stop-color="#24244F"/>
<stop offset="0.3266" stop-color="#242F69"/>
<stop offset="0.5928" stop-color="#20387E"/>
<stop offset="0.8258" stop-color="#1C3E8D"/>
<stop offset="1" stop-color="#194092"/>
</linearGradient>
<linearGradient id="paint5_linear" x1="238.102" y1="174.391" x2="269.837" y2="174.391" gradientUnits="userSpaceOnUse">
<stop stop-color="#666665"/>
<stop offset="1" stop-color="#C8C8C8"/>
</linearGradient>
<linearGradient id="paint6_linear" x1="258.056" y1="210.738" x2="278.623" y2="210.738" gradientUnits="userSpaceOnUse">
<stop stop-color="#24224B"/>
<stop offset="0.0376" stop-color="#24244F"/>
<stop offset="0.3266" stop-color="#242F69"/>
<stop offset="0.5928" stop-color="#20387E"/>
<stop offset="0.8258" stop-color="#1C3E8D"/>
<stop offset="1" stop-color="#194092"/>
</linearGradient>
<clipPath id="clip0">
<rect width="279" height="227" fill="white"/>
</clipPath>
</defs>
</svg>
